<?xml version="1.0" encoding="iso-8859-1"?>
<!-- Generator: Adobe Illustrator 19.0.0, SVG Export Plug-In . SVG Version: 6.00 Build 0)  -->
<svg version="1.1" id="Capa_1" xmlns="http://www.w3.org/2000/svg" xmlns:xlink="http://www.w3.org/1999/xlink" x="0px" y="0px"
	 viewBox="0 0 512.003 512.003" style="enable-background:new 0 0 512.003 512.003;" xml:space="preserve" fill="#7e8082">
<g>
	<g>
		<g>
			<path d="M502.001,54.874H10c-5.523,0-10,4.479-10,10v338.551c0,5.521,4.477,10,10,10h251.472l-5.024,8.701
				c-1.681,2.91-1.787,6.469-0.284,9.475c1.503,3.004,4.415,5.053,7.751,5.455l17.221,2.068l10.644,14.045
				c1.897,2.504,4.852,3.961,7.97,3.961c0.207,0,0.416-0.006,0.625-0.02c3.344-0.209,6.361-2.078,8.036-4.98l21.288-36.875
				l21.289,36.875c1.68,2.91,4.709,4.781,8.063,4.983c0.2,0.012,0.4,0.017,0.599,0.017c3.137,0,6.106-1.475,8.001-4.002
				l10.403-13.883l17.483-2.197c3.324-0.418,6.219-2.473,7.709-5.473s1.379-6.547-0.296-9.449l-5.024-8.701h104.077
				c5.522,0,10-4.479,10-10V64.874C512.001,59.352,507.523,54.874,502.001,54.874z M20,74.874h37.309
				C53.369,93.526,38.651,108.243,20,112.181V74.874z M20,393.424v-37.309c18.651,3.939,33.369,18.656,37.309,37.309H20z
				 M298.62,429.082l-4.107-5.42c-1.638-2.162-4.084-3.564-6.776-3.889l-6.392-0.77l11.041-19.121
				c5.155,4.313,11.014,7.697,17.316,10.004L298.62,429.082z M347.714,388.895c-0.41,0.219-0.825,0.432-1.243,0.637
				c-0.211,0.104-0.423,0.203-0.636,0.303c-0.334,0.156-0.671,0.311-1.011,0.457c-0.322,0.139-0.647,0.272-0.974,0.4
				c-0.252,0.102-0.502,0.203-0.757,0.299c-0.448,0.168-0.901,0.326-1.357,0.477c-0.149,0.051-0.298,0.103-0.448,0.152
				c-0.617,0.195-1.238,0.379-1.867,0.545c-0.002,0-0.005,0.002-0.008,0.002c-1.313,0.346-2.65,0.623-4.006,0.828
				c-0.119,0.02-0.241,0.029-0.361,0.047c-0.516,0.074-1.033,0.141-1.554,0.193c-1.249,0.123-2.514,0.19-3.794,0.19
				c-1.26,0-2.505-0.066-3.734-0.186c-0.526-0.051-1.049-0.119-1.57-0.191c-0.145-0.021-0.293-0.033-0.438-0.057
				c-0.653-0.098-1.303-0.213-1.947-0.346c-0.243-0.049-0.48-0.111-0.722-0.166c-0.392-0.088-0.784-0.174-1.173-0.275
				c-0.367-0.094-0.729-0.205-1.093-0.311c-0.253-0.074-0.507-0.143-0.757-0.221c-0.408-0.129-0.811-0.27-1.214-0.412
				c-0.194-0.068-0.391-0.133-0.585-0.203c-0.438-0.164-0.871-0.338-1.301-0.516c-0.146-0.06-0.293-0.117-0.438-0.18
				c-0.466-0.199-0.926-0.408-1.382-0.625c-0.098-0.047-0.196-0.094-0.294-0.141c-0.494-0.24-0.982-0.49-1.464-0.75
				c-0.044-0.025-0.089-0.049-0.133-0.072c-11.863-6.483-19.929-19.078-19.929-33.523c0-21.047,17.123-38.168,38.172-38.168
				c21.048,0,38.172,17.121,38.172,38.168c0.003,14.413-8.026,26.981-19.845,33.477C347.92,388.784,347.818,388.837,347.714,388.895
				z M371.348,419.929c-2.691,0.338-5.129,1.756-6.756,3.926l-3.861,5.152l-11.039-19.125c0.154-0.057,0.304-0.123,0.457-0.18
				c0.699-0.264,1.393-0.533,2.08-0.822c0.152-0.065,0.302-0.135,0.453-0.199c0.719-0.309,1.43-0.631,2.133-0.967
				c0.086-0.041,0.17-0.084,0.256-0.125c4.276-2.072,8.293-4.65,11.944-7.703l11.083,19.195L371.348,419.929z M434.389,393.423
				h-48.012l-5.789-10.029c4.634-8.346,7.283-17.94,7.283-28.145c0-32.074-26.096-58.168-58.172-58.168
				s-58.172,26.094-58.172,58.168c0,10.205,2.65,19.799,7.283,28.145l-5.791,10.029H77.615
				C73.242,363.723,49.701,340.181,20,335.809v-203.32c29.701-4.373,53.242-27.914,57.615-57.615h356.774
				c4.373,29.701,27.913,53.242,57.612,57.615v203.32C462.302,340.181,438.762,363.723,434.389,393.423z M492.001,393.423h-37.306
				c3.938-18.652,18.655-33.369,37.306-37.309V393.423z M492.001,112.181c-18.65-3.939-33.368-18.656-37.306-37.309h37.306V112.181z
				"/>
			<path d="M361.982,207.926H150.019c-5.523,0-10,4.477-10,10c0,5.521,4.477,10,10,10h211.963c5.523,0,10-4.479,10-10
				C371.982,212.402,367.506,207.926,361.982,207.926z"/>
			<path d="M361.982,248.551H150.019c-5.523,0-10,4.477-10,10c0,5.522,4.477,10,10,10h211.963c5.523,0,10-4.478,10-10
				C371.982,253.027,367.506,248.551,361.982,248.551z"/>
			<path d="M301.077,161.258h0.236c5.522,0,10-4.476,10-10c0-5.521-4.478-10-10-10h-0.236c-5.522,0-10,4.479-10,10
				C291.077,156.782,295.555,161.258,301.077,161.258z"/>
			<path d="M210.688,161.258l61.659-0.004c5.523,0,10-4.477,10-10s-4.479-10-10-10l-61.66,0.004c-5.523,0-10,4.479-10,10.002
				C200.688,156.782,205.166,161.258,210.688,161.258z"/>
			<path d="M150.255,312.978h-0.235c-5.523,0-10,4.479-10,10c0,5.523,4.477,10,10,10h0.235c5.522,0,10-4.477,10-10
				C160.255,317.457,155.777,312.978,150.255,312.978z"/>
			<path d="M220.854,312.978h-41.868c-5.523,0-10,4.479-10,10c0,5.523,4.477,10,10,10h41.868c5.523,0,10-4.477,10-10
				C230.854,317.457,226.377,312.978,220.854,312.978z"/>
		</g>
	</g>
</g>
<g>
</g>
<g>
</g>
<g>
</g>
<g>
</g>
<g>
</g>
<g>
</g>
<g>
</g>
<g>
</g>
<g>
</g>
<g>
</g>
<g>
</g>
<g>
</g>
<g>
</g>
<g>
</g>
<g>
</g>
</svg>
