<?xml version="1.0" encoding="iso-8859-1"?>
<!-- Generator: Adobe Illustrator 19.0.0, SVG Export Plug-In . SVG Version: 6.00 Build 0)  -->
<svg version="1.1" id="Capa_1" xmlns="http://www.w3.org/2000/svg" xmlns:xlink="http://www.w3.org/1999/xlink" x="0px" y="0px"
	 viewBox="0 0 512.001 512.001" style="enable-background:new 0 0 512.001 512.001;" xml:space="preserve" fill="#7e8082">
<g>
	<g>
		<g>
			<path d="M417.002,139.997c38.597,0,69.997-31.401,69.997-69.998c0-38.598-31.4-69.999-69.997-69.999h-322
				C56.404,0,25.002,31.402,25.002,69.999c0,38.597,31.401,69.998,69.999,69.998c3.396,0,6.731-0.256,9.999-0.726v20.726h-9.999
				c-5.522,0-10,4.477-10,10s4.478,10,10,10H105v19.999h-9.999c-5.522,0-10,4.477-10,10c0,5.523,4.478,10,10,10H105v282.005
				c0,5.523,4.478,10,10,10H397c5.522,0,10-4.477,10-10V219.996h10.002c5.522,0,10-4.477,10-10c0-5.523-4.478-10-10-10H407v-19.999
				h10.002c5.522,0,10-4.477,10-10s-4.478-10-10-10H407v-20.726C410.268,139.741,413.606,139.997,417.002,139.997z M217.8,492.001
				h-36.398V287.716c0-10.035,8.165-18.198,18.2-18.198c10.034,0,18.198,8.163,18.198,18.198V492.001z M387,492.001h-92.799V287.716
				c0-10.035,8.165-18.198,18.2-18.198c10.034,0,18.198,8.163,18.198,18.198v93.255v51.036c0,5.523,4.478,10,10,10
				c5.523,0,10-4.477,10-10v-51.036v-93.255c0-21.063-17.137-38.198-38.2-38.198s-38.198,17.136-38.198,38.198v204.285h-36.4
				V287.716c0-21.063-17.137-38.198-38.2-38.198c-21.063,0-38.198,17.136-38.198,38.198v204.285H125V219.996H387V492.001z
				 M387,199.996H125v-19.999H387V199.996z M387,159.997H125v-26.768c23.628-11.255,40.001-35.363,40.001-63.23
				c0-3.36-0.255-6.698-0.732-10.001h183.463c-0.477,3.303-0.731,6.641-0.731,10.001c0,27.866,16.372,51.973,39.998,63.229V159.997z
				 M367.002,69.999c0-5.688,0.963-11.297,2.861-16.669c0.017-0.045,0.025-0.092,0.041-0.138c0.065-0.195,0.123-0.394,0.177-0.594
				c0.036-0.134,0.072-0.267,0.103-0.4c0.038-0.168,0.068-0.338,0.098-0.509c0.029-0.173,0.059-0.346,0.079-0.519
				c0.016-0.135,0.025-0.271,0.035-0.406c0.017-0.209,0.029-0.417,0.032-0.624c0-0.048,0.007-0.094,0.007-0.142
				c0-0.075-0.01-0.148-0.012-0.222c-0.004-0.21-0.014-0.42-0.031-0.628c-0.012-0.138-0.027-0.274-0.045-0.41
				c-0.023-0.179-0.049-0.358-0.082-0.535c-0.029-0.162-0.063-0.322-0.101-0.481c-0.034-0.146-0.071-0.292-0.111-0.436
				c-0.051-0.178-0.105-0.354-0.165-0.528c-0.043-0.125-0.089-0.249-0.137-0.372c-0.069-0.179-0.143-0.355-0.223-0.53
				c-0.054-0.12-0.111-0.237-0.171-0.354c-0.083-0.166-0.17-0.328-0.262-0.488c-0.072-0.125-0.147-0.248-0.226-0.371
				c-0.09-0.141-0.182-0.28-0.277-0.417c-0.096-0.135-0.195-0.266-0.297-0.396c-0.091-0.115-0.183-0.229-0.278-0.34
				c-0.119-0.139-0.242-0.274-0.369-0.407c-0.092-0.095-0.185-0.19-0.28-0.282c-0.137-0.132-0.278-0.26-0.423-0.385
				c-0.1-0.087-0.203-0.171-0.308-0.254c-0.143-0.114-0.29-0.224-0.441-0.33c-0.123-0.087-0.247-0.17-0.374-0.251
				c-0.138-0.088-0.277-0.174-0.421-0.256c-0.155-0.089-0.315-0.173-0.475-0.254c-0.124-0.062-0.247-0.123-0.374-0.18
				c-0.19-0.086-0.382-0.163-0.576-0.237c-0.071-0.027-0.138-0.061-0.21-0.086c-0.046-0.016-0.093-0.026-0.139-0.042
				c-0.194-0.065-0.393-0.122-0.593-0.176c-0.134-0.036-0.267-0.073-0.401-0.103c-0.168-0.038-0.338-0.068-0.509-0.097
				c-0.173-0.03-0.345-0.059-0.517-0.079c-0.136-0.016-0.272-0.026-0.41-0.036c-0.207-0.016-0.413-0.028-0.619-0.031
				c-0.049-0.001-0.096-0.007-0.145-0.007H151.57c-0.048,0-0.094,0.006-0.141,0.007c-0.209,0.003-0.418,0.015-0.627,0.031
				c-0.136,0.011-0.27,0.021-0.404,0.036c-0.174,0.021-0.347,0.049-0.52,0.079c-0.17,0.029-0.339,0.059-0.506,0.097
				c-0.135,0.03-0.27,0.067-0.403,0.103c-0.2,0.054-0.397,0.11-0.592,0.176c-0.046,0.016-0.093,0.025-0.139,0.042
				c-0.072,0.025-0.139,0.059-0.21,0.086c-0.194,0.074-0.387,0.151-0.576,0.237c-0.127,0.057-0.25,0.118-0.374,0.18
				c-0.16,0.081-0.319,0.165-0.475,0.254c-0.144,0.082-0.283,0.168-0.421,0.256c-0.127,0.081-0.251,0.164-0.374,0.251
				c-0.15,0.106-0.298,0.216-0.441,0.33c-0.105,0.083-0.207,0.168-0.308,0.254c-0.146,0.125-0.286,0.252-0.423,0.384
				c-0.096,0.092-0.188,0.187-0.28,0.282c-0.127,0.133-0.251,0.268-0.369,0.406c-0.096,0.111-0.188,0.225-0.278,0.34
				c-0.102,0.13-0.201,0.262-0.297,0.396c-0.096,0.137-0.188,0.275-0.277,0.417c-0.078,0.123-0.153,0.245-0.226,0.371
				c-0.092,0.16-0.179,0.322-0.262,0.488c-0.06,0.117-0.117,0.235-0.171,0.354c-0.08,0.174-0.153,0.351-0.223,0.53
				c-0.048,0.123-0.094,0.247-0.137,0.372c-0.06,0.174-0.114,0.35-0.165,0.528c-0.04,0.144-0.077,0.289-0.111,0.436
				c-0.037,0.159-0.071,0.319-0.101,0.481c-0.033,0.177-0.059,0.355-0.082,0.535c-0.018,0.136-0.033,0.272-0.045,0.411
				c-0.018,0.208-0.027,0.417-0.031,0.626c-0.002,0.075-0.012,0.147-0.012,0.223c0,0.048,0.007,0.094,0.007,0.142
				c0.003,0.208,0.016,0.416,0.032,0.624c0.01,0.136,0.02,0.271,0.035,0.406c0.021,0.173,0.05,0.346,0.079,0.519
				c0.029,0.171,0.06,0.341,0.098,0.509c0.03,0.134,0.066,0.267,0.103,0.4c0.054,0.2,0.111,0.399,0.177,0.594
				c0.016,0.045,0.024,0.092,0.041,0.138c1.898,5.372,2.861,10.98,2.861,16.669c0,27.569-22.43,49.998-50,49.998
				c-27.569,0.002-49.999-22.427-49.999-49.996C45.002,42.43,67.432,20,95.001,20h322c27.568,0,49.997,22.43,49.997,49.999
				c0,27.569-22.429,49.998-49.997,49.998C389.432,119.997,367.002,97.568,367.002,69.999z"/>
			<path d="M95.001,39.998c-16.542,0-29.999,13.459-29.999,30.001c0,16.542,13.457,30,29.999,30c16.543,0,30.001-13.458,30.001-30
				C125.002,53.457,111.544,39.998,95.001,39.998z M95.001,79.999c-5.514,0-9.999-4.486-9.999-10c0-5.515,4.485-10.001,9.999-10.001
				c5.515,0,10.001,4.486,10.001,10.001C105.002,75.513,100.516,79.999,95.001,79.999z"/>
			<path d="M447.003,69.999c0-16.542-13.458-30.001-30.001-30.001c-16.542,0-30,13.459-30,30.001c0,16.542,13.458,30,30,30
				C433.544,99.999,447.003,86.541,447.003,69.999z M407.002,69.999c0-5.514,4.487-10.001,10-10.001
				c5.515,0,10.001,4.486,10.001,10.001c0,5.514-4.486,10-10.001,10C411.487,79.999,407.002,75.513,407.002,69.999z"/>
			<path d="M340.597,450.737c-5.522,0-10,4.477-10,10v0.236c0,5.523,4.478,10,10,10c5.522,0,10-4.477,10-10v-0.236
				C350.597,455.214,346.12,450.737,340.597,450.737z"/>
			<path d="M310.232,119.997H201.771c-5.523,0-10,4.477-10,10c0,5.523,4.477,10,10,10h108.461c5.522,0,10-4.477,10-10
				C320.232,124.474,315.755,119.997,310.232,119.997z"/>
			<path d="M244.966,99.999H296c5.522,0,10-4.477,10-10c0-5.523-4.478-10-10-10h-51.035c-5.522,0-10,4.477-10,10
				C234.966,95.522,239.443,99.999,244.966,99.999z"/>
			<path d="M216,99.999h0.235c5.522,0,10-4.477,10-10c0-5.523-4.478-10-10-10H216c-5.523,0-10,4.477-10,10
				C206,95.522,210.479,99.999,216,99.999z"/>
		</g>
	</g>
</g>
<g>
</g>
<g>
</g>
<g>
</g>
<g>
</g>
<g>
</g>
<g>
</g>
<g>
</g>
<g>
</g>
<g>
</g>
<g>
</g>
<g>
</g>
<g>
</g>
<g>
</g>
<g>
</g>
<g>
</g>
</svg>
