<?xml version="1.0" encoding="iso-8859-1"?>
<!-- Generator: Adobe Illustrator 19.0.0, SVG Export Plug-In . SVG Version: 6.00 Build 0)  -->
<svg version="1.1" id="Capa_1" xmlns="http://www.w3.org/2000/svg" xmlns:xlink="http://www.w3.org/1999/xlink" x="0px" y="0px"
	 viewBox="0 0 511.998 511.998" style="enable-background:new 0 0 511.998 511.998;" xml:space="preserve" fill="#7e8082">
<g>
	<g>
		<g>
			<path d="M501.998,370.684h-62.123v-47.82c16.095-3.063,30.801-13.514,42.161-30.199c12.874-18.91,19.965-43.805,19.965-70.098
				c0-26.295-7.091-51.191-19.965-70.102c-13.676-20.088-32.2-31.15-52.161-31.15s-38.484,11.063-52.16,31.15
				c-12.875,18.91-19.965,43.807-19.965,70.102c0,26.293,7.09,51.188,19.965,70.098c11.359,16.686,26.066,27.137,42.16,30.199v47.82
				H309.01V237.436l6.154,3.553c4.783,2.762,10.898,1.123,13.66-3.66c2.762-4.783,1.123-10.898-3.66-13.66L175.083,137.02
				c-3.094-1.785-6.905-1.787-10,0L14.999,223.668c-4.782,2.762-6.422,8.877-3.66,13.66c1.853,3.209,5.214,5.002,8.669,5.002
				c1.697,0,3.416-0.432,4.991-1.342l6.159-3.555v133.25H10c-5.523,0-10,4.479-10,10c0,5.523,4.477,10,10,10h31.158H299.01h202.988
				c5.523,0,10-4.477,10-10C511.998,375.162,507.521,370.684,501.998,370.684z M289.01,370.684H91.158V349.65
				c0-5.523-4.477-10-10-10s-10,4.477-10,10v21.033h-20V225.887l118.925-68.66l78.929,45.568v25.26c0,5.523,4.477,10,10,10
				c5.522,0,10-4.477,10-10v-13.713l19.998,11.547V370.684z M400.326,231.387l19.549,33.861v36.982
				c-23.666-7.507-42.125-40.937-42.125-79.664c0-44.043,23.87-81.252,52.125-81.252c28.256,0,52.126,37.209,52.126,81.252
				c0,38.727-18.46,72.156-42.126,79.664v-36.982l19.547-33.861c2.762-4.783,1.123-10.898-3.66-13.66
				c-4.783-2.76-10.9-1.123-13.66,3.662l-12.227,21.18l-12.229-21.182c-2.762-4.783-8.877-6.422-13.66-3.66
				C399.204,220.489,397.564,226.604,400.326,231.387z"/>
			<path d="M170.083,236.309c-18.013,0-32.667,14.656-32.667,32.67v57.332c0,5.522,4.477,10,10,10h45.338c5.522,0,10-4.478,10-10
				v-57.332C202.754,250.965,188.098,236.309,170.083,236.309z M182.754,316.31h-25.338v-20.004h25.338V316.31z M182.754,276.307
				h-25.338v-7.328c0-6.987,5.684-12.67,12.669-12.67s12.669,5.684,12.669,12.67V276.307z"/>
			<path d="M81.16,310.682c-5.522,0-10,4.478-10,10v0.236c0,5.523,4.478,10,10,10c5.523,0,10-4.477,10-10v-0.236
				C91.16,315.16,86.684,310.682,81.16,310.682z"/>
			<path d="M259.012,246.787c-5.523,0-10,4.477-10,10v0.236c0,5.521,4.477,10,10,10c5.522,0,10-4.479,10-10v-0.236
				C269.012,251.264,264.534,246.787,259.012,246.787z"/>
		</g>
	</g>
</g>
<g>
</g>
<g>
</g>
<g>
</g>
<g>
</g>
<g>
</g>
<g>
</g>
<g>
</g>
<g>
</g>
<g>
</g>
<g>
</g>
<g>
</g>
<g>
</g>
<g>
</g>
<g>
</g>
<g>
</g>
</svg>
