<?xml version="1.0" encoding="iso-8859-1"?>
<!-- Generator: Adobe Illustrator 19.0.0, SVG Export Plug-In . SVG Version: 6.00 Build 0)  -->
<svg version="1.1" id="Layer_1" xmlns="http://www.w3.org/2000/svg" xmlns:xlink="http://www.w3.org/1999/xlink" x="0px" y="0px"
	 viewBox="0 0 512 512" style="enable-background:new 0 0 512 512;" xml:space="preserve" fill="#7e8082">
<g>
	<g>
		<g>
			<path d="M506.938,193.594c-3.135-1.969-7.063-2.115-10.375-0.469L384,249.406v-46.74c0-3.698-1.917-7.125-5.063-9.073
				c-3.146-1.969-7.083-2.115-10.375-0.469L256,249.406v-46.74c0-3.698-1.917-7.125-5.063-9.073
				c-3.146-1.969-7.083-2.115-10.375-0.469l-90.63,45.315L127.906,73.26c-0.708-5.302-5.229-9.26-10.573-9.26h-64
				c-5.344,0-9.865,3.958-10.573,9.26L5.729,350.969C1.927,379.521,0,408.573,0,437.333C0,443.229,4.771,448,10.667,448H160h341.333
				c5.896,0,10.667-4.771,10.667-10.667V202.667C512,198.969,510.083,195.542,506.938,193.594z M21.427,426.667
				c0.417-24.323,2.24-48.792,5.448-72.885L62.677,85.333h45.313l35.802,268.448c3.208,24.094,5.031,48.563,5.448,72.885H21.427z
				 M160.809,320H192v21.333h-28.348L160.809,320z M490.667,426.667H170.313c-0.352-21.357-1.771-42.753-4.211-64h36.565
				c5.896,0,10.667-4.771,10.667-10.667v-42.667c0-5.896-4.771-10.667-10.667-10.667h-44.703l-5.049-37.863l81.753-40.876v46.74
				c0,3.698,1.917,7.125,5.063,9.073c3.135,1.948,7.052,2.104,10.375,0.469l112.563-56.281v46.74c0,3.698,1.917,7.125,5.063,9.073
				c3.125,1.948,7.042,2.104,10.375,0.469l112.563-56.281V426.667z"/>
			<path d="M330.667,298.667h-64c-5.896,0-10.667,4.771-10.667,10.667V352c0,5.896,4.771,10.667,10.667,10.667h64
				c5.896,0,10.667-4.771,10.667-10.667v-42.667C341.333,303.438,336.563,298.667,330.667,298.667z M320,341.333h-42.667V320H320
				V341.333z"/>
			<path d="M394.667,362.667h64c5.896,0,10.667-4.771,10.667-10.667v-42.667c0-5.896-4.771-10.667-10.667-10.667h-64
				c-5.896,0-10.667,4.771-10.667,10.667V352C384,357.896,388.771,362.667,394.667,362.667z M405.333,320H448v21.333h-42.667V320z"
				/>
		</g>
	</g>
</g>
<g>
</g>
<g>
</g>
<g>
</g>
<g>
</g>
<g>
</g>
<g>
</g>
<g>
</g>
<g>
</g>
<g>
</g>
<g>
</g>
<g>
</g>
<g>
</g>
<g>
</g>
<g>
</g>
<g>
</g>
</svg>
