<?xml version="1.0" encoding="iso-8859-1"?>
<!-- Generator: Adobe Illustrator 19.0.0, SVG Export Plug-In . SVG Version: 6.00 Build 0)  -->
<svg version="1.1" id="Capa_1" xmlns="http://www.w3.org/2000/svg" xmlns:xlink="http://www.w3.org/1999/xlink" x="0px" y="0px"
	 viewBox="0 0 512.004 512.004" style="enable-background:new 0 0 512.004 512.004;" xml:space="preserve" fill="#7e8082">
<g>
	<g>
		<g>
			<path d="M507.342,199.703l-246-155.373c-3.262-2.061-7.418-2.061-10.68,0L4.661,199.703c-4.669,2.949-6.063,9.125-3.115,13.794
				l23.894,37.832c1.416,2.243,3.665,3.831,6.252,4.415c2.588,0.585,5.301,0.117,7.543-1.3l3.549-2.241V459.22
				c0,5.523,4.477,10,10,10h406.438c5.522,0,10-4.477,10-10V252.203l3.547,2.241c1.658,1.047,3.506,1.547,5.332,1.547
				c3.316,0,6.561-1.649,8.463-4.661l23.895-37.828c1.01-1.598,1.545-3.454,1.545-5.344
				C512.002,204.726,510.242,201.535,507.342,199.703z M246.002,368.216c-15.118-13.117-25.866-30.604-30.766-49.918l30.766,17.764
				V368.216z M246.002,312.967l-33.732-19.476c0.098-9.72,1.658-19.248,4.526-28.304l29.206,16.861V312.967z M246.002,258.955
				l-21.186-12.23c5.487-9.756,12.635-18.576,21.186-25.995V258.955z M449.221,449.22H266.002v-56.057
				c33.289-21.557,53.747-58.837,53.747-98.69c0-7.918-0.811-15.734-2.365-23.347c-0.077-0.681-0.222-1.359-0.444-2.024
				c-7.072-31.753-27.17-59.758-55.931-76.395c-0.025-0.015-0.052-0.024-0.077-0.038c-0.356-0.202-0.723-0.387-1.104-0.545
				c-0.021-0.008-0.04-0.014-0.06-0.021c-0.346-0.141-0.703-0.259-1.068-0.361c-0.099-0.028-0.198-0.052-0.299-0.077
				c-0.294-0.073-0.594-0.131-0.898-0.177c-0.104-0.016-0.208-0.035-0.313-0.048c-0.388-0.046-0.78-0.076-1.181-0.076
				c-0.006,0-0.011,0-0.017,0c-0.4,0.001-0.793,0.031-1.181,0.077c-0.103,0.012-0.206,0.032-0.309,0.047
				c-0.306,0.046-0.608,0.105-0.902,0.178c-0.1,0.024-0.197,0.048-0.295,0.076c-0.365,0.103-0.725,0.221-1.072,0.362
				c-0.018,0.008-0.037,0.013-0.057,0.02c-0.381,0.158-0.746,0.342-1.102,0.543c-0.026,0.015-0.055,0.024-0.08,0.04
				c-21.336,12.343-37.906,30.943-47.93,52.687c-0.049,0.079-0.104,0.152-0.15,0.233c-0.41,0.709-0.711,1.449-0.932,2.201
				c-6.304,14.526-9.729,30.37-9.729,46.647c0,1.625,0.046,3.243,0.113,4.858c0.001,0.322,0.017,0.642,0.049,0.961
				c1.883,37.637,21.922,72.367,53.586,92.871v56.057H102.783v-41.038c0-5.523-4.477-10-10-10s-10,4.477-10,10v41.038h-20V239.57
				l193.219-122.04l153.218,96.775v47.961c0,5.523,4.478,10,10,10c5.523,0,10-4.477,10-10v-35.329l20.001,12.633V449.22z
				 M299.556,288.366c0.127,2.026,0.193,4.062,0.193,6.107c0,28.486-12.598,55.394-33.747,73.744v-60.479L299.556,288.366z
				 M266.002,284.644V220.73c14.263,12.375,24.637,28.642,29.879,46.663L266.002,284.644z M474.994,232.194L261.342,97.248
				c-1.631-1.03-3.486-1.545-5.34-1.545c-1.855,0-3.709,0.515-5.341,1.545L37.009,232.194l-13.213-20.922l232.206-146.66
				l232.207,146.661L474.994,232.194z"/>
			<path d="M92.785,369.217c-5.523,0-10,4.477-10,10v0.236c0,5.523,4.477,10,10,10c5.523,0,10-4.477,10-10v-0.236
				C102.785,373.694,98.308,369.217,92.785,369.217z"/>
			<path d="M419.225,280.996c-5.523,0-10,4.477-10,10v0.236c0,5.523,4.477,10,10,10c5.522,0,10-4.477,10-10v-0.236
				C429.225,285.473,424.748,280.996,419.225,280.996z"/>
		</g>
	</g>
</g>
<g>
</g>
<g>
</g>
<g>
</g>
<g>
</g>
<g>
</g>
<g>
</g>
<g>
</g>
<g>
</g>
<g>
</g>
<g>
</g>
<g>
</g>
<g>
</g>
<g>
</g>
<g>
</g>
<g>
</g>
</svg>
