<?xml version="1.0" encoding="iso-8859-1"?>
<!-- Generator: Adobe Illustrator 19.0.0, SVG Export Plug-In . SVG Version: 6.00 Build 0)  -->
<svg version="1.1" id="Capa_1" xmlns="http://www.w3.org/2000/svg" xmlns:xlink="http://www.w3.org/1999/xlink" x="0px" y="0px"
	 viewBox="0 0 512.001 512.001" style="enable-background:new 0 0 512.001 512.001;" xml:space="preserve" fill="#7e8082">
<g>
	<g>
		<g>
			<path d="M507.339,199.704L261.34,44.329c-3.262-2.061-7.418-2.061-10.68,0L4.659,199.704c-2.242,1.418-3.83,3.666-4.414,6.254
				c-0.584,2.586-0.116,5.299,1.3,7.541l23.894,37.83c1.902,3.012,5.147,4.66,8.464,4.66c1.826,0,3.674-0.498,5.331-1.545
				l3.548-2.242v207.016c0,5.521,4.477,10,10,10h406.436c5.523,0,10-4.479,10-10V252.2l3.551,2.244
				c2.242,1.416,4.955,1.885,7.543,1.299c2.586-0.584,4.836-2.172,6.252-4.414l23.891-37.83
				C513.403,208.829,512.008,202.654,507.339,199.704z M266,449.218v-22.002h10.451c12.672,0,22.982-10.309,22.982-22.979v-33.086
				c0-4.41-2.859-8.146-6.824-9.477c1.413-11.488,6.102-16.943,16.842-29.424c3.275-3.805,6.988-8.119,11.182-13.297
				c11.93-14.727,18.5-33.295,18.5-52.283c0-45.84-37.293-83.133-83.133-83.133s-83.135,37.293-83.135,83.133
				c0,18.988,6.57,37.557,18.5,52.283c4.194,5.18,7.908,9.494,11.184,13.301c10.74,12.478,15.429,17.934,16.841,29.42
				c-3.964,1.33-6.823,5.066-6.823,9.477v33.086c0,12.67,10.311,22.979,22.982,22.979H246v22.002H102.78v-41.035
				c0-5.522-4.477-10-10-10c-5.522,0-10,4.478-10,10v41.035H62.782V239.572L256,117.533l153.219,96.773v47.959
				c0,5.523,4.477,10,10,10c5.522,0,10-4.477,10-10v-35.326l19.998,12.631v209.648H266z M232.568,381.152h46.866v23.086
				c0,1.615-1.366,2.979-2.982,2.979H235.55c-1.616,0-2.982-1.363-2.982-2.979V381.152z M217.708,319.209
				c-3.185-3.701-6.794-7.895-10.802-12.844c-9.186-11.338-14.041-25.064-14.041-39.693c0-34.811,28.322-63.133,63.135-63.133
				c34.811,0,63.133,28.322,63.133,63.133c0,14.629-4.855,28.355-14.041,39.695c-4.007,4.945-7.615,9.139-10.799,12.84
				c-12.31,14.302-19.859,23.074-21.72,41.945h-33.145C237.567,342.281,230.018,333.511,217.708,319.209z M474.992,232.195
				L261.34,97.251c-3.262-2.06-7.418-2.06-10.68,0L47.442,225.603c-0.004,0.002-0.006,0.006-0.01,0.008l-10.424,6.584l-13.213-20.92
				L256,64.613l232.204,146.662L474.992,232.195z"/>
			<path d="M92.784,369.216c-5.523,0-10,4.478-10,10v0.236c0,5.523,4.477,10,10,10s10-4.477,10-10v-0.236
				C102.784,373.695,98.307,369.216,92.784,369.216z"/>
			<path d="M419.223,280.995c-5.523,0-10,4.478-10,10v0.236c0,5.523,4.477,10,10,10s10-4.477,10-10v-0.236
				C429.223,285.474,424.746,280.995,419.223,280.995z"/>
			<path d="M256,243.538c5.523,0,10-4.479,10-10c0-5.523-4.476-10-10-10c-23.785,0-43.136,19.35-43.136,43.133
				c0,5.523,4.477,10,10,10c5.522,0,10-4.477,10-10C232.864,253.915,243.242,243.538,256,243.538z"/>
		</g>
	</g>
</g>
<g>
</g>
<g>
</g>
<g>
</g>
<g>
</g>
<g>
</g>
<g>
</g>
<g>
</g>
<g>
</g>
<g>
</g>
<g>
</g>
<g>
</g>
<g>
</g>
<g>
</g>
<g>
</g>
<g>
</g>
</svg>
