<?xml version="1.0" encoding="iso-8859-1"?>
<!-- Generator: Adobe Illustrator 19.0.0, SVG Export Plug-In . SVG Version: 6.00 Build 0)  -->
<svg version="1.1" id="Capa_1" xmlns="http://www.w3.org/2000/svg" xmlns:xlink="http://www.w3.org/1999/xlink" x="0px" y="0px"
	 viewBox="0 0 512 512" style="enable-background:new 0 0 512 512;" xml:space="preserve" fill="#7e8082">
<g>
	<g>
		<g>
			<path d="M512,300.925c0-8.07-3.128-15.645-8.81-21.324L232.402,8.812c-5.681-5.68-13.253-8.809-21.323-8.809
				s-15.643,3.129-21.324,8.809l-71.259,71.259c-5.682,5.682-8.809,13.254-8.809,21.324c0.002,8.07,3.13,15.643,8.81,21.322
				l270.788,270.79c5.681,5.68,13.253,8.809,21.323,8.809c8.071,0,15.644-3.129,21.322-8.809l28.561-28.561l14.362,14.363
				l-65.285,65.284L209.817,299.95c-3.979-2.881-9.462-2.445-12.936,1.029l-21.434,21.432l-11.934-11.934
				c-4.416-4.416-10.301-6.846-16.57-6.846c-6.269,0-12.156,2.432-16.572,6.848L103.1,337.75c-0.006,0.006-0.012,0.01-0.017,0.016
				c-0.006,0.006-0.01,0.012-0.016,0.018L6.852,433.997c-9.136,9.137-9.137,24.004,0,33.145l38.008,38.006
				c4.415,4.418,10.301,6.85,16.572,6.85c6.27,0,12.154-2.432,16.571-6.846L201.523,381.63c4.414-4.416,6.846-10.301,6.847-16.57
				c0-6.272-2.433-12.158-6.849-16.572l-11.932-11.934l15.403-15.402l199.749,144.643c0.064,0.047,0.131,0.086,0.196,0.131
				c0.107,0.074,0.215,0.146,0.324,0.217c0.157,0.098,0.315,0.191,0.477,0.281c0.1,0.057,0.201,0.115,0.304,0.168
				c0.262,0.135,0.527,0.26,0.797,0.369c0.012,0.006,0.023,0.008,0.033,0.014c0.271,0.107,0.544,0.201,0.82,0.285
				c0.072,0.023,0.146,0.041,0.221,0.063c0.22,0.061,0.441,0.115,0.664,0.162c0.08,0.016,0.158,0.031,0.238,0.045
				c0.232,0.043,0.465,0.076,0.698,0.102c0.064,0.006,0.128,0.016,0.192,0.021c0.297,0.027,0.594,0.045,0.892,0.045
				c0.019,0,0.038-0.004,0.058-0.004c0.339-0.002,0.678-0.023,1.016-0.059c0.108-0.012,0.216-0.031,0.324-0.047
				c0.252-0.035,0.502-0.076,0.75-0.131c0.117-0.025,0.233-0.057,0.35-0.086c0.24-0.061,0.478-0.133,0.714-0.211
				c0.112-0.039,0.224-0.076,0.335-0.117c0.242-0.092,0.482-0.197,0.718-0.309c0.097-0.045,0.194-0.086,0.289-0.133
				c0.29-0.148,0.575-0.313,0.853-0.492c0.034-0.021,0.07-0.039,0.103-0.061c0.299-0.197,0.587-0.414,0.867-0.647
				c0.109-0.09,0.213-0.191,0.32-0.289c0.127-0.115,0.26-0.223,0.383-0.346l78.382-78.38c0.002-0.002,0.004-0.004,0.006-0.006
				c1.952-1.953,2.928-4.512,2.928-7.07c0-2.56-0.976-5.119-2.928-7.072c-0.002-0.002-0.004-0.002-0.006-0.004l-21.429-21.428
				l28.561-28.561C508.871,316.566,512,308.995,512,300.925z M63.862,491.007c-0.861,0.861-1.893,0.99-2.43,0.99
				s-1.568-0.129-2.43-0.99l-38.007-38.006c-1.317-1.318-1.317-3.545-0.001-4.861l89.16-89.159l42.866,42.867L63.862,491.007z
				 M187.38,367.488l-20.217,20.217l-42.866-42.867l20.216-20.217c0.863-0.861,1.895-0.99,2.432-0.99
				c0.538,0,1.568,0.129,2.43,0.988l38.008,38.01c0.861,0.861,0.989,1.891,0.989,2.428
				C188.37,365.595,188.241,366.627,187.38,367.488z M453.419,343.731c0,0-0.001,0.002-0.002,0.002
				c-0.001,0.002-0.002,0.002-0.002,0.004l-35.628,35.63c-1.902,1.902-4.451,2.949-7.18,2.949c-2.728,0-5.278-1.049-7.181-2.951
				l-270.788-270.79c-1.903-1.902-2.951-4.453-2.952-7.182c0-2.727,1.048-5.277,2.95-7.18l7.624-7.623l29.018,29.015
				c1.952,1.952,4.512,2.929,7.07,2.929s5.119-0.977,7.071-2.93c3.905-3.904,3.905-10.236-0.001-14.142l-29.016-29.015
				l20.215-20.216c43.602,33.722,69.651,72.158,97.138,112.742c41.574,61.38,84.517,124.761,191.38,169.043L453.419,343.731z
				 M489.05,308.105l-10.554,10.553c-106.987-42.08-147.422-101.769-190.181-164.898c-26.788-39.551-54.432-80.364-99.442-115.78
				l15.022-15.025c1.904-1.902,4.455-2.951,7.184-2.951c2.729,0,5.278,1.049,7.181,2.951l270.79,270.788
				c1.903,1.902,2.95,4.453,2.95,7.182C492,303.652,490.953,306.202,489.05,308.105z"/>
			<path d="M203.68,121.73c-3.934-3.877-10.266-3.829-14.143,0.103c-3.876,3.934-3.83,10.266,0.104,14.142l0.169,0.166
				c1.948,1.92,4.484,2.878,7.019,2.878c2.584,0,5.166-0.995,7.123-2.98c3.877-3.934,3.831-10.265-0.102-14.142L203.68,121.73z"/>
		</g>
	</g>
</g>
<g>
</g>
<g>
</g>
<g>
</g>
<g>
</g>
<g>
</g>
<g>
</g>
<g>
</g>
<g>
</g>
<g>
</g>
<g>
</g>
<g>
</g>
<g>
</g>
<g>
</g>
<g>
</g>
<g>
</g>
</svg>
